<?xml version="1.0" standalone="no"?>
<!DOCTYPE svg PUBLIC "-//W3C//DTD SVG 20010904//EN"
 "http://www.w3.org/TR/2001/REC-SVG-20010904/DTD/svg10.dtd">
<svg version="1.0" xmlns="http://www.w3.org/2000/svg"
 width="750.000000pt" height="750.000000pt" viewBox="0 0 750.000000 750.000000"
 preserveAspectRatio="xMidYMid meet">
<metadata>
Created by potrace 1.14, written by Peter Selinger 2001-2017
</metadata>
<g transform="translate(0.000000,750.000000) scale(0.100000,-0.100000)"
fill="#000000" stroke="none">
<path d="M5174 7486 c-7 -7 -40 -16 -75 -19 -34 -4 -70 -14 -79 -22 -9 -8 -31
-15 -48 -15 -18 0 -49 -9 -69 -20 -21 -11 -48 -20 -60 -20 -12 0 -28 -7 -37
-15 -8 -8 -20 -15 -26 -15 -20 0 -185 -82 -193 -96 -4 -8 -16 -14 -26 -14 -10
0 -26 -9 -36 -20 -10 -11 -24 -20 -32 -20 -7 0 -16 -7 -19 -15 -4 -8 -11 -15
-17 -15 -6 0 -17 -7 -26 -15 -34 -31 -79 -65 -89 -65 -5 0 -12 -7 -16 -15 -3
-8 -12 -15 -21 -15 -8 0 -15 -4 -15 -10 0 -12 -88 -100 -100 -100 -6 0 -10 -7
-10 -15 0 -8 -5 -15 -10 -15 -6 0 -16 -11 -22 -25 -6 -14 -17 -25 -25 -25 -7
0 -13 -7 -13 -15 0 -8 -5 -15 -10 -15 -6 0 -16 -12 -23 -27 -6 -16 -27 -43
-44 -61 -18 -18 -33 -38 -33 -45 0 -7 -9 -20 -20 -30 -11 -9 -20 -23 -20 -31
0 -8 -7 -16 -15 -20 -8 -3 -15 -12 -15 -20 0 -7 -6 -16 -14 -19 -8 -3 -17 -20
-21 -37 -4 -17 -13 -34 -21 -37 -8 -3 -14 -17 -14 -33 0 -15 -9 -35 -20 -45
-11 -10 -20 -29 -20 -42 0 -21 -4 -23 -54 -23 -29 0 -73 -7 -96 -15 -23 -8
-54 -15 -69 -15 -14 -1 -44 -8 -66 -16 -22 -9 -56 -19 -75 -24 -75 -19 -140
-46 -140 -57 0 -8 -13 -13 -30 -13 -19 0 -34 -7 -42 -20 -8 -12 -24 -20 -40
-20 -16 0 -28 -4 -28 -10 0 -5 -15 -16 -32 -25 -45 -20 -71 -38 -81 -52 -4 -7
-13 -13 -20 -13 -7 0 -18 -9 -25 -20 -7 -11 -21 -20 -32 -20 -10 0 -24 -9 -30
-20 -6 -11 -17 -20 -25 -20 -8 0 -15 -7 -15 -15 0 -8 -6 -15 -12 -15 -7 0 -29
-15 -48 -33 -19 -19 -45 -39 -58 -46 -12 -7 -25 -24 -28 -39 -4 -18 -16 -32
-35 -41 -29 -13 -86 -67 -124 -117 -11 -14 -28 -35 -37 -45 -10 -11 -18 -23
-18 -28 0 -5 -7 -14 -15 -21 -10 -9 -12 -17 -5 -30 5 -9 6 -20 3 -24 -3 -3 8
-6 25 -6 22 0 32 5 32 15 0 8 7 15 15 15 8 0 15 7 15 15 0 7 6 18 13 22 7 4
26 26 42 48 16 22 36 48 45 57 33 37 40 48 40 63 0 9 17 24 38 33 22 10 46 24
55 32 9 8 28 24 43 35 14 11 35 28 45 38 11 9 23 17 29 17 5 0 13 6 17 13 4 7
19 18 33 25 34 16 60 33 82 55 10 9 27 17 38 17 11 0 20 6 20 13 0 11 41 34
110 60 13 6 46 23 73 39 26 15 58 28 71 28 13 0 29 7 36 15 7 8 28 17 49 20
20 4 47 12 61 19 38 20 189 41 202 28 6 -6 10 -46 9 -94 -2 -89 13 -191 29
-196 6 -2 10 -14 10 -26 0 -13 9 -31 20 -41 11 -10 20 -24 20 -32 0 -7 7 -16
15 -19 8 -4 15 -12 15 -19 0 -15 61 -27 74 -15 10 10 -2 70 -14 70 -10 0 -46
74 -56 115 -4 16 -13 36 -21 43 -22 22 -17 190 7 252 11 28 20 59 20 69 0 10
6 24 14 30 8 7 18 26 21 42 4 16 11 29 15 29 5 0 12 16 16 35 3 20 12 35 20
35 9 0 14 12 14 35 0 24 6 37 20 45 12 6 20 21 20 35 0 16 6 25 15 25 9 0 20
11 25 25 5 14 14 25 20 25 5 0 10 7 10 15 0 8 6 15 14 15 7 0 16 9 19 20 3 11
12 20 21 20 9 0 16 6 16 13 0 15 85 97 101 97 5 0 9 4 9 9 0 14 45 61 58 61 5
0 12 7 16 15 3 8 12 15 21 15 8 0 15 7 15 15 0 8 11 17 24 21 14 3 32 14 42
25 9 10 23 19 31 19 7 0 13 7 13 15 0 8 9 15 19 15 11 0 21 4 23 8 5 13 95 62
113 62 9 0 19 9 22 20 4 15 14 20 39 20 24 0 34 5 34 15 0 8 8 15 18 15 9 1
35 9 57 20 22 11 50 19 63 20 13 0 35 6 50 14 15 7 52 16 82 20 30 4 58 12 62
19 4 6 50 14 105 18 54 3 114 13 133 20 27 11 102 14 325 14 260 0 294 -2 318
-17 14 -10 42 -18 61 -18 19 0 41 -6 48 -14 8 -7 29 -17 46 -21 18 -3 32 -11
32 -16 0 -5 15 -15 33 -23 17 -7 44 -25 58 -38 15 -14 34 -28 43 -31 9 -4 16
-13 16 -22 0 -8 7 -15 15 -15 8 0 15 -6 15 -13 0 -8 9 -22 20 -32 11 -10 20
-29 20 -43 0 -14 8 -34 17 -44 9 -10 21 -48 26 -86 10 -76 10 -84 1 -129 -8
-41 -23 -53 -51 -42 -19 7 -23 16 -23 53 0 28 5 48 14 53 23 13 25 143 3 143
-8 0 -26 15 -42 34 -16 19 -40 38 -54 41 -14 4 -29 12 -33 18 -10 17 -466 17
-476 1 -4 -7 -34 -14 -68 -17 -64 -6 -134 -39 -134 -63 0 -8 -9 -14 -20 -14
-11 0 -23 -7 -26 -15 -4 -8 -12 -15 -20 -15 -7 0 -18 -9 -24 -19 -5 -11 -18
-22 -28 -25 -10 -4 -26 -22 -35 -41 -9 -19 -21 -35 -27 -35 -5 0 -10 -9 -10
-19 0 -11 -6 -26 -13 -33 -25 -25 -28 -55 -28 -299 1 -207 -1 -249 -14 -259
-9 -8 -15 -30 -15 -59 0 -26 -4 -51 -9 -56 -5 -6 -16 -37 -25 -70 -8 -33 -20
-61 -26 -63 -5 -2 -10 -9 -10 -16 0 -18 -24 -66 -32 -66 -5 0 -8 -13 -8 -30 0
-20 -5 -30 -15 -30 -8 0 -15 -6 -15 -13 0 -26 -91 -111 -142 -134 -16 -7 -28
-17 -28 -22 0 -4 -14 -11 -31 -15 -16 -3 -37 -13 -45 -21 -9 -8 -24 -16 -35
-16 -35 -3 -40 -4 -47 -16 -4 -6 -21 -15 -37 -19 -17 -4 -41 -15 -54 -26 -13
-10 -30 -18 -38 -18 -21 0 -11 -22 13 -29 41 -11 208 -1 224 14 9 8 24 15 33
15 8 0 22 6 29 14 14 13 48 28 58 24 8 -3 60 52 60 62 0 6 6 10 13 10 13 0 32
17 89 81 33 36 50 61 76 112 7 15 17 27 22 27 5 0 11 14 15 31 4 17 13 33 21
36 8 3 14 14 14 24 0 28 65 27 82 -1 7 -11 20 -20 30 -20 9 0 23 -6 30 -13 7
-7 24 -18 38 -25 40 -19 64 -36 73 -49 4 -7 14 -13 21 -13 7 0 32 -18 55 -40
23 -22 44 -40 47 -40 3 0 27 -22 54 -50 27 -27 54 -50 60 -50 6 0 13 -7 17
-16 3 -8 26 -36 52 -63 64 -66 131 -148 131 -160 0 -6 5 -11 10 -11 6 0 15
-11 20 -25 5 -14 14 -25 19 -25 5 0 14 -13 21 -29 6 -16 25 -42 41 -58 15 -15
29 -33 29 -39 0 -6 9 -19 20 -29 11 -10 20 -24 20 -32 0 -7 7 -16 15 -19 8 -4
15 -13 15 -20 0 -8 7 -17 15 -20 8 -4 15 -12 15 -20 0 -7 11 -25 25 -40 14
-15 25 -31 25 -35 0 -5 6 -9 14 -9 7 0 16 -9 19 -20 6 -22 37 -28 37 -6 0 7
-9 25 -20 39 -11 14 -20 34 -20 45 0 11 -8 28 -17 38 -10 9 -18 23 -19 31 -2
8 -10 23 -18 32 -9 10 -16 24 -16 32 0 8 -9 25 -20 39 -11 14 -20 31 -20 38 0
6 -7 12 -15 12 -8 0 -15 9 -15 20 0 11 -9 29 -20 40 -11 11 -20 27 -20 35 0 8
-6 15 -14 15 -8 0 -17 12 -20 26 -7 25 -44 72 -88 113 -10 8 -18 21 -18 28 0
7 -7 13 -15 13 -8 0 -15 5 -15 11 0 11 -196 209 -206 209 -3 0 -19 16 -37 35
-17 19 -36 35 -41 35 -5 0 -31 16 -57 35 -27 19 -54 35 -59 35 -6 0 -10 4 -10
9 0 5 -16 16 -35 25 -19 9 -35 21 -35 26 0 4 -15 12 -32 16 -18 3 -37 12 -43
20 -5 7 -21 14 -35 16 -25 3 -25 4 -24 95 0 50 6 116 13 145 9 36 11 85 7 143
-17 256 -18 295 -7 295 6 0 11 8 11 18 0 10 9 28 20 40 11 12 20 28 20 36 0 8
9 18 20 21 11 3 20 13 20 21 0 8 7 14 15 14 9 0 18 7 21 15 4 8 11 15 18 15 6
0 28 9 49 20 20 11 48 20 61 20 14 0 32 8 41 17 12 11 43 19 94 24 42 4 106
12 143 19 53 10 81 10 130 1 35 -7 82 -15 106 -18 23 -3 42 -9 42 -14 0 -5 6
-9 13 -9 6 0 23 -9 36 -19 l23 -18 -18 -39 c-13 -26 -19 -59 -18 -97 1 -52 5
-62 35 -93 35 -37 63 -42 93 -19 11 8 27 15 36 15 26 0 62 72 62 125 -1 57
-22 184 -36 210 -9 17 -16 38 -16 48 0 9 -4 17 -8 17 -5 0 -16 16 -25 35 -9
19 -21 35 -27 35 -5 0 -10 7 -10 15 0 8 -5 15 -10 15 -6 0 -30 18 -52 40 -23
22 -48 40 -55 40 -8 0 -16 7 -19 15 -4 8 -14 15 -23 15 -10 0 -27 9 -39 20
-12 11 -30 20 -40 20 -11 0 -25 7 -32 15 -7 8 -34 18 -62 21 -27 4 -55 13 -63
20 -20 20 -794 20 -811 0z"/>
<path d="M3343 6001 c-34 -28 -31 -73 6 -89 33 -15 81 -2 81 22 0 8 6 16 13
19 9 3 9 11 2 33 -9 24 -17 29 -45 31 -23 2 -43 -4 -57 -16z"/>
<path d="M1085 5883 c-60 -5 -86 -13 -80 -23 3 -5 -10 -12 -30 -16 -20 -3 -35
-12 -35 -20 0 -8 -5 -14 -11 -14 -6 0 -27 -17 -48 -37 -79 -79 -87 -82 -165
-58 -62 19 -120 19 -149 0 -12 -8 -49 -17 -82 -21 -33 -3 -70 -13 -82 -20 -12
-8 -31 -14 -41 -14 -11 0 -25 -7 -32 -15 -7 -8 -19 -15 -26 -15 -8 0 -14 -7
-14 -16 0 -9 -9 -18 -20 -21 -11 -3 -20 -11 -20 -18 0 -7 -9 -15 -20 -18 -11
-3 -20 -12 -20 -21 0 -9 -7 -16 -15 -16 -8 0 -15 -4 -15 -8 0 -5 -9 -19 -20
-32 -11 -13 -20 -32 -20 -42 0 -11 -5 -29 -12 -41 -15 -27 -37 -192 -37 -272
0 -121 45 -225 97 -225 l25 0 -7 123 c-3 67 -8 155 -10 194 -3 40 0 75 5 78 5
4 9 25 9 49 0 50 18 108 31 100 5 -3 9 3 9 13 0 10 10 27 22 38 52 45 123 95
136 95 8 0 20 8 27 17 12 16 33 17 218 15 l205 -3 75 75 c64 64 82 76 109 76
18 0 46 7 62 15 38 20 145 20 174 -1 12 -8 22 -26 22 -39 0 -13 4 -26 9 -29
28 -18 86 -171 97 -256 3 -30 13 -65 20 -77 8 -12 14 -45 14 -72 0 -44 -3 -53
-27 -68 -38 -24 -83 -69 -83 -82 0 -6 -4 -11 -10 -11 -5 0 -14 -18 -20 -40 -6
-21 -17 -45 -25 -53 -7 -8 -15 -34 -17 -57 -3 -39 -7 -46 -43 -66 -22 -13 -52
-26 -67 -29 -16 -4 -28 -13 -28 -21 0 -9 -11 -14 -35 -14 -23 0 -38 -6 -42
-16 -3 -9 -19 -30 -35 -47 -16 -18 -32 -44 -35 -59 -3 -15 -11 -29 -19 -32 -8
-3 -14 -12 -14 -19 0 -8 -9 -25 -19 -39 -42 -53 12 -102 62 -56 14 13 29 36
32 51 4 15 11 27 15 27 5 0 12 9 15 21 16 49 100 129 135 129 16 0 31 4 34 8
3 5 30 14 60 21 53 12 56 14 61 49 3 20 13 52 21 70 8 18 14 38 14 44 0 21 42
99 56 105 8 3 14 11 14 19 0 27 43 44 112 44 38 0 68 -4 68 -10 0 -5 16 -16
35 -24 28 -12 35 -20 35 -44 0 -15 -7 -37 -15 -48 -8 -10 -15 -26 -15 -35 0
-8 -9 -25 -20 -37 -11 -12 -20 -34 -20 -50 0 -15 -6 -34 -12 -40 -7 -7 -18
-57 -25 -110 -7 -53 -17 -117 -22 -142 -6 -25 -10 -64 -11 -87 0 -33 -8 -51
-37 -87 -21 -24 -43 -45 -49 -45 -7 -1 -14 -8 -18 -16 -3 -8 -13 -15 -23 -15
-15 0 -60 -35 -124 -95 -9 -8 -21 -15 -28 -15 -14 0 -73 -40 -84 -57 -4 -7
-25 -13 -45 -13 -41 0 -62 -14 -62 -42 0 -25 31 -38 88 -38 47 0 51 -2 71 -36
15 -25 21 -52 21 -97 0 -45 6 -74 22 -104 21 -39 21 -46 10 -90 -7 -26 -17
-49 -23 -51 -5 -2 -9 -12 -9 -23 0 -11 -9 -29 -20 -41 -11 -12 -20 -31 -20
-43 0 -12 -7 -30 -15 -41 -8 -10 -15 -31 -15 -45 0 -15 -6 -32 -14 -38 -8 -7
-20 -34 -26 -61 -7 -28 -16 -50 -21 -50 -5 0 -9 -16 -9 -35 0 -20 -9 -53 -20
-75 -11 -22 -20 -59 -20 -83 0 -29 -7 -53 -19 -68 -18 -23 -25 -24 -173 -27
-176 -4 -397 10 -406 25 -7 10 -69 21 -144 25 -21 1 -39 7 -42 14 -2 6 -19 14
-37 18 -59 11 -109 40 -115 65 -7 25 13 159 26 176 4 6 11 34 15 62 4 29 10
55 15 58 4 3 11 35 15 72 3 38 13 78 21 90 8 12 14 44 14 70 0 26 7 62 16 78
9 17 20 54 25 84 4 30 12 57 18 60 5 4 13 31 16 61 4 30 14 65 22 78 10 17 13
44 10 95 -4 69 -32 168 -49 175 -4 2 -8 8 -8 14 0 10 -33 84 -66 149 -7 14
-11 29 -8 32 11 11 -17 152 -31 160 -8 4 -15 15 -15 22 0 8 -7 15 -15 15 -9 0
-18 7 -21 15 -4 8 -12 15 -20 15 -19 0 -19 -78 0 -116 8 -16 19 -65 25 -109
10 -87 36 -185 50 -194 5 -3 12 -22 16 -41 4 -19 13 -46 20 -60 42 -84 47
-104 31 -116 -9 -6 -16 -25 -16 -42 0 -16 -6 -32 -14 -35 -8 -3 -17 -25 -21
-49 -4 -24 -12 -50 -19 -58 -6 -8 -13 -28 -14 -45 -2 -16 -9 -46 -17 -65 -19
-50 -45 -155 -55 -225 -4 -33 -14 -76 -21 -95 -20 -51 -19 -287 0 -300 9 -5
16 -31 19 -69 3 -41 9 -61 17 -61 8 0 27 -11 43 -25 17 -14 37 -25 46 -25 9 0
16 -4 16 -8 0 -5 17 -14 39 -20 45 -14 56 -40 35 -80 -8 -15 -14 -45 -14 -67
0 -22 -8 -60 -17 -85 -15 -39 -18 -99 -21 -469 -3 -397 -2 -431 17 -515 11
-50 23 -121 26 -158 4 -37 10 -70 15 -73 5 -3 12 -25 16 -50 3 -24 12 -50 20
-56 8 -6 14 -20 14 -30 0 -11 9 -27 20 -36 11 -10 20 -23 20 -30 0 -7 7 -13
15 -13 8 0 15 -9 15 -20 0 -11 8 -28 19 -39 10 -10 21 -31 25 -47 4 -16 11
-31 14 -34 10 -7 30 -41 47 -77 9 -18 20 -33 25 -33 6 0 10 -6 10 -12 0 -7 21
-42 46 -78 25 -36 62 -90 82 -120 20 -30 42 -61 49 -68 7 -7 13 -19 13 -27 0
-7 9 -15 20 -18 11 -3 20 -12 20 -21 0 -9 7 -16 15 -16 8 0 15 -6 15 -14 0 -8
6 -16 13 -19 7 -3 19 -23 26 -46 6 -23 16 -41 22 -41 6 0 8 -4 5 -9 -3 -5 1
-14 9 -21 8 -7 15 -19 15 -27 0 -8 4 -11 10 -8 5 3 10 -1 10 -9 0 -9 -3 -15
-7 -14 -5 0 -16 -2 -26 -7 -23 -10 -39 5 -40 39 -1 14 -7 26 -14 26 -12 0 -93
-72 -93 -82 0 -3 -25 -43 -55 -89 -30 -46 -55 -91 -55 -100 0 -9 -7 -22 -15
-29 -8 -6 -17 -21 -21 -33 -4 -12 -12 -27 -19 -34 -7 -7 -16 -30 -20 -52 -3
-22 -13 -42 -21 -45 -8 -3 -14 -16 -14 -30 0 -14 -6 -31 -13 -38 -11 -11 -30
-57 -54 -130 -5 -16 2 -18 50 -18 47 0 57 3 62 20 3 11 10 20 16 20 5 0 12 18
15 41 4 22 12 46 19 53 7 7 16 27 20 46 4 19 14 40 21 48 8 7 14 27 14 43 0
17 8 36 20 46 11 10 20 25 20 34 0 9 7 22 15 29 8 7 15 23 15 36 0 13 9 32 20
41 11 10 20 26 20 36 0 10 9 27 20 39 11 12 20 30 20 39 0 10 4 21 10 24 32
20 -10 -106 -46 -136 -8 -6 -14 -27 -14 -45 0 -27 -4 -34 -20 -34 -16 0 -20
-7 -20 -34 0 -18 -7 -47 -15 -62 -8 -16 -15 -36 -15 -44 0 -9 -9 -33 -20 -55
-11 -22 -20 -48 -20 -60 -1 -11 -7 -31 -15 -45 -8 -14 -14 -37 -15 -52 l0 -28
1010 0 c955 0 1010 1 1010 18 1 9 9 35 20 57 11 22 19 45 20 50 0 6 23 25 50
43 28 18 50 37 50 42 0 4 15 23 34 42 49 47 63 58 70 51 3 -4 6 -1 6 5 0 13
56 17 64 4 3 -5 -4 -16 -14 -25 -11 -9 -17 -23 -14 -31 3 -8 -1 -39 -10 -70
-9 -30 -16 -84 -16 -120 0 -57 2 -66 18 -66 24 0 69 47 83 88 10 28 14 31 37
26 15 -4 31 -10 35 -14 9 -8 67 20 67 33 0 4 7 7 15 7 8 0 19 9 25 20 6 11 21
20 33 20 12 0 28 9 35 20 7 11 19 20 27 20 8 0 15 7 15 15 0 8 8 15 19 15 10
0 21 9 24 20 3 11 12 20 21 20 9 0 16 5 16 12 0 9 3 9 11 1 21 -21 1 -108 -32
-140 -15 -15 -29 -36 -29 -45 0 -10 -6 -18 -14 -18 -7 0 -16 -9 -19 -21 -4
-14 -10 -18 -19 -13 -7 4 -10 4 -6 -1 4 -4 4 -13 -1 -19 -4 -6 -11 -19 -14
-28 -6 -17 12 -18 288 -18 245 0 295 2 295 14 0 8 15 17 35 20 21 4 35 13 35
21 0 8 7 15 15 15 8 0 24 9 35 20 11 11 29 20 40 20 11 0 20 6 20 14 0 7 16
24 35 37 19 13 35 29 35 34 0 6 11 20 25 33 25 24 45 22 45 -4 0 -8 5 -14 11
-14 5 0 17 -16 25 -35 8 -19 19 -35 24 -35 6 0 10 -7 10 -15 0 -9 7 -18 15
-21 8 -4 15 -11 15 -18 0 -6 11 -24 25 -40 14 -16 25 -33 25 -38 0 -4 63 -8
140 -8 118 0 140 2 140 15 0 8 -5 15 -10 15 -6 0 -14 8 -17 18 -4 9 -24 37
-45 61 -21 24 -38 50 -38 57 0 8 -7 14 -15 14 -8 0 -15 4 -15 9 0 5 -16 32
-35 60 -19 28 -35 55 -35 61 0 5 -7 10 -15 10 -14 0 -22 40 -10 52 10 10 55
-4 55 -18 0 -7 14 -20 30 -29 17 -9 30 -20 30 -25 0 -6 6 -10 13 -10 8 0 22
-9 32 -20 10 -11 24 -20 32 -20 7 0 13 -5 13 -10 0 -6 16 -18 35 -27 19 -9 35
-20 35 -24 0 -4 15 -10 33 -13 22 -4 39 -15 47 -31 20 -37 49 -42 71 -14 23
29 24 58 4 95 -8 16 -15 36 -15 45 0 9 -7 19 -15 23 -8 3 -15 11 -15 17 0 14
-104 119 -119 119 -6 0 -15 9 -21 20 -6 11 -17 20 -25 20 -9 0 -25 11 -37 25
-11 13 -25 22 -30 19 -4 -3 -11 1 -14 9 -3 8 -21 18 -40 21 -19 4 -34 11 -34
17 0 5 -11 14 -25 19 -14 5 -25 14 -25 19 0 6 -16 13 -35 17 -19 3 -35 12 -35
19 0 7 -20 15 -50 19 -37 5 -48 10 -44 21 7 18 77 10 109 -11 11 -8 29 -14 40
-14 11 -1 38 -9 60 -20 22 -11 47 -19 56 -20 9 0 28 -9 42 -20 14 -11 38 -20
54 -20 16 0 37 -6 48 -14 11 -7 40 -16 65 -19 25 -3 59 -13 75 -21 17 -9 35
-16 41 -16 7 0 14 -7 18 -15 3 -9 18 -15 36 -15 23 0 30 -4 30 -20 0 -11 4
-20 10 -20 5 0 17 -16 26 -35 9 -19 20 -35 25 -35 5 0 9 -7 9 -15 0 -8 9 -15
20 -15 13 0 20 -7 20 -20 0 -10 9 -24 20 -30 11 -6 18 -15 15 -21 -4 -5 0 -9
8 -9 16 0 79 -84 70 -94 -3 -3 1 -6 10 -6 9 0 17 -7 17 -15 0 -8 9 -19 20 -25
11 -6 20 -19 20 -29 0 -10 9 -26 20 -36 11 -10 20 -24 20 -32 0 -10 30 -13
145 -13 132 0 145 2 145 18 -1 20 -23 52 -37 52 -6 0 -22 15 -35 33 -14 17
-46 53 -72 79 -25 26 -46 52 -46 58 0 5 -5 10 -11 10 -7 0 -17 6 -23 14 -6 8
-20 17 -32 20 -16 5 -23 0 -32 -19 -11 -25 -29 -26 -59 -2 -18 13 -16 62 2 77
21 17 19 46 -5 70 -24 24 -43 25 -60 5 -22 -27 -48 -28 -75 -1 -14 14 -31 29
-39 33 -8 4 -16 17 -18 28 -2 17 4 21 44 25 49 6 73 19 50 27 -7 3 -17 16 -22
29 -5 13 -16 24 -25 24 -8 0 -15 7 -15 15 0 9 -7 18 -17 22 -31 12 -81 69 -88
101 -3 18 -12 32 -19 32 -7 0 -23 11 -36 25 -13 14 -29 25 -37 25 -7 0 -13 4
-13 9 0 5 -11 23 -25 40 -14 16 -28 40 -30 52 -8 38 -22 44 -107 42 -59 -2
-86 -7 -99 -19 -14 -12 -49 -19 -126 -26 -60 -5 -116 -13 -125 -18 -32 -18
-62 -10 -103 25 -22 19 -48 35 -59 35 -11 0 -27 7 -37 15 -12 12 -48 18 -125
22 -60 3 -120 11 -134 18 -97 48 -176 59 -214 30 -11 -8 -26 -15 -35 -15 -8 0
-22 -7 -32 -16 -11 -10 -44 -18 -86 -22 -42 -3 -71 -10 -76 -18 -4 -8 -14 -14
-21 -14 -8 0 -16 -7 -20 -15 -7 -19 -55 -19 -62 0 -5 11 -23 15 -71 15 -39 0
-76 6 -95 16 -17 9 -59 19 -92 21 -34 3 -67 10 -73 15 -7 6 -63 15 -125 21
-62 6 -115 14 -119 19 -3 4 -27 11 -55 14 -27 4 -53 13 -57 21 -4 7 -21 13
-38 13 -16 0 -39 9 -51 20 -13 12 -36 20 -56 20 -19 0 -45 9 -59 20 -14 11
-38 20 -53 20 -16 0 -30 7 -34 15 -3 8 -12 15 -21 15 -9 0 -33 9 -53 20 -20
10 -45 21 -55 24 -10 3 -15 10 -12 16 9 15 53 12 80 -6 13 -8 61 -19 107 -24
46 -5 99 -13 118 -19 19 -6 81 -11 138 -11 109 0 125 7 103 48 -8 16 -24 20
-89 24 -44 2 -92 12 -111 21 -19 9 -54 17 -78 17 -24 0 -54 6 -66 14 -12 8
-47 17 -78 21 -31 3 -65 13 -75 20 -11 8 -33 15 -51 15 -17 0 -34 4 -37 9 -3
4 -27 14 -53 21 -27 7 -55 19 -64 27 -8 7 -27 13 -40 13 -14 0 -34 8 -45 18
-11 10 -33 22 -49 26 -16 4 -32 11 -35 14 -7 10 -41 30 -77 47 -18 9 -33 20
-33 25 0 6 -6 10 -13 10 -7 0 -23 9 -35 20 -12 11 -29 20 -38 20 -9 0 -18 9
-21 20 -3 11 -12 20 -19 20 -8 0 -14 4 -14 9 0 5 -16 25 -35 45 -19 20 -37 47
-41 60 -3 14 -12 27 -20 30 -8 3 -14 12 -14 20 0 7 -9 16 -20 19 -11 3 -20 14
-20 25 0 10 -9 27 -20 37 -11 10 -20 24 -20 32 0 7 -4 13 -9 13 -5 0 -12 14
-16 31 -4 17 -13 33 -20 35 -7 3 -16 20 -19 39 -4 18 -13 36 -21 39 -8 3 -15
16 -15 30 0 14 -7 32 -16 41 -9 8 -19 35 -22 58 -3 23 -11 47 -17 52 -7 6 -16
30 -19 54 -4 24 -13 56 -21 72 -8 15 -15 41 -15 58 0 16 -5 42 -11 58 -14 34
-42 250 -41 318 0 72 19 212 36 270 18 63 34 125 50 194 7 30 18 57 24 59 7 2
12 23 12 49 0 30 7 53 20 70 11 14 20 36 20 49 0 12 7 29 15 38 8 8 15 20 15
27 0 12 28 77 61 141 10 20 19 44 19 52 0 8 6 21 14 28 7 8 17 28 20 45 4 17
13 34 21 36 7 3 16 19 20 36 4 17 10 31 15 31 5 0 19 20 31 45 13 25 31 53 41
62 10 9 18 22 18 30 0 7 7 13 15 13 8 0 15 4 15 10 0 5 25 35 55 66 30 32 55
61 55 66 0 4 5 8 11 8 6 0 25 16 43 35 19 19 38 35 45 35 6 0 11 7 11 15 0 13
68 94 128 151 12 12 22 26 22 33 0 6 7 11 15 11 8 0 15 6 15 13 0 6 16 25 35
41 19 16 35 35 35 42 0 6 9 14 20 17 15 4 20 14 20 36 0 17 9 48 20 68 11 21
20 45 20 54 0 9 7 19 15 23 8 3 15 12 15 20 0 8 16 48 35 89 19 41 35 81 35
88 0 8 9 20 20 27 11 7 20 23 20 36 0 13 6 26 14 29 8 3 17 19 21 35 3 17 13
33 21 36 8 3 14 17 14 31 0 14 7 28 15 31 8 4 15 12 15 19 0 7 9 24 20 38 11
14 20 32 20 40 0 9 9 19 20 22 11 3 20 15 20 26 0 10 6 19 14 19 21 0 34 82
17 109 -8 12 -14 12 -40 1 -17 -7 -31 -18 -31 -25 0 -7 -10 -24 -21 -37 -25
-28 -62 -88 -84 -135 -8 -18 -20 -33 -25 -33 -6 0 -10 -8 -10 -18 0 -9 -9 -23
-20 -30 -11 -7 -20 -23 -20 -37 0 -16 -6 -25 -15 -25 -8 0 -15 -8 -15 -19 0
-10 -9 -30 -20 -44 -11 -14 -20 -32 -20 -40 0 -9 -6 -22 -14 -29 -7 -8 -17
-28 -20 -45 -4 -17 -14 -34 -22 -37 -8 -3 -14 -18 -14 -33 0 -15 -9 -39 -20
-53 -11 -14 -20 -33 -20 -43 0 -11 -6 -33 -14 -50 -8 -18 -17 -49 -21 -69 -3
-24 -11 -38 -20 -38 -8 0 -15 -6 -15 -13 0 -7 -14 -23 -31 -37 -55 -45 -79
-69 -79 -80 0 -5 -6 -10 -14 -10 -8 0 -17 -9 -21 -19 -3 -11 -12 -22 -20 -25
-8 -3 -15 -12 -15 -21 0 -8 -5 -15 -11 -15 -12 0 -129 -116 -129 -128 0 -5
-18 -26 -40 -47 -22 -21 -40 -45 -40 -52 0 -7 -9 -17 -20 -23 -11 -6 -20 -17
-20 -25 0 -8 -7 -15 -15 -15 -8 0 -15 -4 -15 -9 0 -6 -14 -25 -31 -43 -17 -18
-35 -45 -41 -60 -5 -16 -16 -28 -24 -28 -8 0 -14 -7 -14 -15 0 -8 -8 -23 -19
-34 -10 -10 -23 -27 -28 -36 -8 -14 -14 -15 -30 -6 -16 8 -22 25 -28 76 -3 36
-13 72 -21 80 -10 10 -13 23 -8 37 9 28 55 78 72 78 7 0 27 16 45 35 17 19 35
35 39 35 9 0 58 45 58 54 0 4 14 20 30 36 17 16 30 33 30 38 0 4 9 18 20 29
13 14 21 43 26 85 3 35 10 71 15 80 5 9 9 57 9 106 0 85 13 152 30 152 4 0 13
20 19 44 6 25 15 48 21 51 5 3 10 19 10 35 0 16 8 36 17 46 21 21 23 126 3
132 -7 3 -22 15 -33 28 -11 13 -25 24 -31 24 -5 0 -17 6 -25 14 -9 8 -41 17
-71 21 -30 4 -58 10 -62 13 -4 4 -10 45 -13 92 -4 47 -10 99 -15 115 -5 17
-14 59 -19 94 -6 39 -17 68 -26 73 -9 6 -15 23 -15 43 0 19 -4 35 -8 35 -8 0
-62 76 -62 88 0 4 -13 19 -28 33 -24 24 -37 27 -122 31 -52 3 -113 3 -135 1z
m-580 -2853 c28 -5 72 -13 99 -20 28 -6 130 -10 238 -10 104 1 192 -1 195 -4
3 -3 7 -69 9 -148 2 -78 8 -144 13 -147 5 -3 12 -55 16 -116 5 -70 14 -125 26
-153 11 -24 19 -61 19 -82 0 -23 5 -40 14 -43 7 -3 16 -27 19 -56 3 -28 13
-61 22 -73 8 -13 15 -34 15 -48 0 -14 5 -31 12 -38 6 -6 13 -22 15 -34 2 -12
12 -32 23 -43 11 -12 20 -31 20 -43 0 -13 6 -25 14 -28 8 -3 18 -19 21 -36 4
-16 13 -32 21 -35 8 -3 14 -11 14 -19 0 -8 4 -14 9 -14 5 0 17 -16 27 -36 11
-20 23 -44 29 -55 5 -10 18 -19 27 -19 10 0 18 -7 18 -15 0 -17 141 -165 156
-165 5 0 17 -8 26 -17 36 -37 54 -51 76 -57 12 -4 22 -14 22 -22 0 -8 9 -14
20 -14 12 0 20 -7 20 -16 0 -9 8 -18 18 -20 24 -7 62 -65 62 -96 0 -15 -6 -33
-14 -40 -7 -8 -16 -39 -20 -70 -4 -31 -13 -62 -21 -68 -7 -6 -16 -27 -20 -47
-3 -20 -13 -42 -21 -50 -8 -8 -14 -25 -14 -39 0 -13 -9 -33 -20 -44 -11 -11
-20 -24 -20 -30 0 -21 -43 -90 -56 -90 -8 0 -14 -9 -14 -20 0 -11 -7 -20 -15
-20 -8 0 -15 -6 -15 -14 0 -8 -16 -33 -35 -56 -22 -27 -35 -52 -35 -71 0 -27
-3 -29 -36 -29 -27 0 -37 -5 -41 -20 -3 -10 -14 -22 -24 -25 -10 -4 -19 -10
-19 -15 0 -18 -79 -90 -99 -90 -22 0 -132 102 -144 133 -3 9 -13 17 -22 17 -8
0 -15 5 -15 12 0 13 -117 128 -131 128 -5 0 -9 6 -9 13 0 7 -27 41 -60 75 -33
35 -60 70 -60 78 0 8 -7 14 -15 14 -8 0 -15 7 -15 15 0 9 -7 18 -15 21 -8 4
-15 11 -15 16 0 6 -10 21 -22 34 -45 46 -58 64 -58 79 0 8 -7 15 -15 15 -8 0
-15 6 -15 13 0 8 -9 24 -20 37 -11 13 -20 29 -20 35 0 7 -7 15 -15 19 -8 3
-15 10 -15 17 0 6 -11 24 -25 41 -14 16 -25 36 -25 44 0 8 -5 14 -11 14 -5 0
-15 14 -20 30 -6 16 -15 30 -20 30 -5 0 -9 9 -9 20 0 11 -6 23 -14 26 -8 3
-17 17 -21 32 -4 15 -15 35 -26 45 -10 10 -19 27 -19 38 0 11 -6 30 -14 42 -9
14 -16 68 -20 148 -3 69 -10 139 -17 155 -17 46 -30 543 -22 841 8 255 9 273
28 288 12 9 30 13 45 9 14 -3 48 -10 75 -14z m1420 -1766 c9 -1 18 -4 18 -6 1
-2 8 -13 15 -25 14 -26 16 -63 3 -63 -5 0 -12 -28 -16 -62 -4 -35 -13 -73 -21
-85 -8 -12 -14 -31 -14 -42 0 -11 -6 -26 -14 -33 -7 -8 -17 -29 -21 -47 -4
-18 -13 -35 -21 -38 -8 -3 -14 -14 -14 -24 0 -11 -9 -27 -20 -36 -11 -10 -20
-23 -20 -31 0 -7 -7 -15 -15 -18 -8 -4 -15 -12 -15 -19 0 -6 -9 -20 -20 -30
-11 -10 -20 -23 -20 -29 0 -6 -14 -22 -31 -36 -17 -14 -35 -35 -40 -47 -5 -13
-15 -23 -24 -23 -10 0 -15 -10 -15 -30 0 -20 -6 -32 -17 -36 -10 -3 -30 -12
-45 -20 -33 -18 -38 -18 -38 1 0 8 4 15 9 15 5 0 12 18 16 40 5 32 11 40 28
40 24 0 87 62 87 86 0 8 6 17 14 20 8 3 20 19 26 35 7 16 16 29 21 29 5 0 9 7
9 16 0 9 9 27 20 41 11 14 20 32 20 40 0 8 9 26 20 40 11 14 20 39 20 55 0 16
6 31 15 34 9 4 15 19 15 35 0 16 7 46 15 65 8 20 17 66 20 102 9 95 14 119 25
102 5 -7 16 -15 25 -16z m876 -343 c30 -10 80 -21 112 -25 32 -4 56 -10 52
-14 -3 -3 14 -14 37 -23 l43 -18 -110 1 c-60 1 -114 4 -120 8 -5 4 -30 10 -54
14 -24 4 -55 16 -69 26 -13 11 -31 20 -38 20 -17 0 -18 17 -1 23 27 12 97 6
148 -12z m1199 -35 c0 -2 -7 -9 -15 -16 -12 -10 -15 -10 -15 4 0 9 7 16 15 16
8 0 15 -2 15 -4z m-1377 -43 c4 -7 14 -13 22 -13 8 0 18 -6 22 -14 4 -8 24
-18 43 -24 19 -5 34 -14 33 -20 -2 -6 28 -13 75 -16 42 -3 96 -11 120 -16 29
-7 56 -7 87 1 29 7 49 8 61 1 14 -8 10 -11 -24 -17 -22 -3 -46 -13 -53 -21 -6
-8 -20 -14 -30 -14 -10 0 -22 -8 -28 -17 -8 -15 -24 -18 -102 -18 -64 0 -94 4
-96 12 -3 7 -20 15 -39 19 -19 3 -39 15 -45 25 -5 11 -17 19 -25 19 -8 0 -12
4 -9 10 3 5 -6 12 -20 16 -14 3 -25 12 -25 19 0 7 -6 15 -14 18 -14 5 -28 56
-19 69 6 12 57 -3 66 -19z m-263 -53 c4 0 10 -9 13 -20 3 -11 12 -20 21 -20 9
0 16 -7 16 -15 0 -8 7 -15 15 -15 9 0 19 -8 22 -17 4 -10 13 -23 20 -28 7 -6
16 -28 20 -50 3 -22 12 -44 20 -48 7 -4 13 -14 13 -22 0 -8 6 -18 13 -22 22
-14 57 -65 57 -84 0 -15 -8 -19 -36 -19 -38 0 -68 26 -122 105 -15 22 -30 42
-34 45 -3 3 -10 19 -14 35 -4 16 -13 35 -20 42 -7 7 -15 30 -19 52 -3 22 -13
42 -21 45 -14 5 -20 47 -8 59 4 3 13 0 21 -8 8 -8 18 -15 23 -15z m298 -201
c2 -5 11 -9 20 -9 10 0 23 -4 31 -9 22 -14 -5 -41 -41 -41 -21 0 -31 6 -35 20
-3 11 -11 20 -18 20 -15 0 -27 25 -17 35 8 8 56 -4 60 -16z m729 -156 c-7 -24
-18 -34 -39 -38 -15 -4 -28 -13 -28 -21 0 -8 -6 -14 -14 -14 -8 0 -23 -13 -32
-29 -10 -16 -28 -35 -41 -42 -13 -7 -23 -18 -23 -26 0 -7 -7 -13 -15 -13 -8 0
-21 -13 -30 -30 -17 -32 -49 -55 -66 -45 -18 12 3 50 57 100 30 28 54 58 54
68 0 9 7 17 15 17 15 0 55 34 55 46 0 9 49 54 59 54 5 0 14 7 21 15 21 25 39
-3 27 -42z m-1869 23 c2 -11 -4 -19 -17 -23 -12 -3 -21 -12 -21 -19 0 -8 -6
-14 -13 -14 -7 0 -20 -8 -29 -17 -8 -10 -28 -27 -42 -38 -15 -11 -36 -28 -47
-37 -24 -22 -77 -24 -85 -3 -12 29 45 95 81 95 12 0 25 7 29 15 3 9 18 15 36
15 16 0 30 4 30 9 0 12 51 40 65 37 6 -2 12 -10 13 -20z m2842 -22 c0 -33 -13
-30 -26 5 -10 25 -9 28 7 24 12 -3 19 -14 19 -29z"/>
<path d="M5370 5716 c0 -8 -7 -16 -15 -20 -21 -8 -19 -52 5 -76 52 -52 106 5
84 88 -5 17 -14 22 -40 22 -22 0 -34 -5 -34 -14z"/>
<path d="M1120 5575 c0 -8 4 -15 9 -15 5 0 11 7 15 15 3 9 0 15 -9 15 -8 0
-15 -7 -15 -15z"/>
<path d="M3201 5539 c-12 -13 -21 -36 -21 -55 0 -25 6 -34 28 -43 42 -17 66
-8 78 29 12 35 -1 80 -23 80 -6 0 -18 3 -26 6 -8 3 -24 -5 -36 -17z"/>
<path d="M1154 5476 c-8 -21 3 -36 27 -36 25 0 25 26 -1 40 -16 9 -22 8 -26
-4z"/>
<path d="M510 5401 c0 -20 17 -37 27 -28 7 8 -7 47 -18 47 -5 0 -9 -9 -9 -19z"/>
<path d="M1097 5413 c-6 -11 -7 -76 -1 -70 6 6 13 77 8 77 -1 0 -5 -3 -7 -7z"/>
<path d="M572 5391 c-11 -7 -10 -10 3 -15 26 -10 35 -7 35 9 0 17 -18 19 -38
6z"/>
<path d="M394 5368 c-4 -13 -10 -25 -14 -28 -15 -11 -19 -68 -5 -80 11 -9 12
-7 8 12 -4 18 -3 20 6 8 9 -13 11 -13 11 2 0 9 8 29 17 46 16 28 13 62 -6 62
-5 0 -13 -10 -17 -22z"/>
<path d="M1027 5367 c-3 -8 -2 -29 3 -48 4 -19 8 -26 9 -16 1 10 9 17 21 17
26 0 25 3 -4 35 -17 19 -25 22 -29 12z"/>
<path d="M569 5349 c-9 -6 1 -9 30 -9 24 0 41 3 38 6 -10 11 -53 13 -68 3z"/>
<path d="M651 5233 c-8 -16 -7 -24 4 -33 12 -10 16 -9 21 3 3 9 1 24 -4 33 -9
16 -10 16 -21 -3z"/>
<path d="M1200 5225 c0 -14 4 -25 10 -25 5 0 7 7 4 15 -4 8 -1 15 6 15 6 0 8
5 5 10 -11 18 -25 10 -25 -15z"/>
<path d="M480 5214 c0 -8 5 -12 10 -9 6 4 8 11 5 16 -9 14 -15 11 -15 -7z"/>
<path d="M370 5182 c0 -10 7 -19 15 -19 17 0 17 0 9 21 -8 22 -24 20 -24 -2z"/>
<path d="M4916 5173 c-3 -3 -22 -9 -42 -12 -31 -5 -39 -12 -52 -45 -12 -30
-13 -43 -4 -57 7 -10 12 -26 12 -34 0 -8 7 -15 15 -15 8 0 15 -6 15 -14 0 -28
63 -35 98 -10 12 8 22 23 22 33 0 11 7 21 15 25 22 8 18 42 -7 77 -25 33 -63
61 -72 52z"/>
<path d="M437 5080 c-11 -41 15 -82 29 -45 8 19 -3 65 -15 65 -5 0 -11 -9 -14
-20z"/>
<path d="M1555 5039 c-4 -5 -4 -13 -1 -16 3 -3 0 -13 -6 -21 -10 -12 -9 -14 7
-11 12 3 20 13 21 27 1 25 -11 38 -21 21z"/>
<path d="M620 5030 c0 -5 5 -10 10 -10 6 0 10 5 10 10 0 6 -4 10 -10 10 -5 0
-10 -4 -10 -10z"/>
<path d="M576 5001 c-7 -10 17 -21 45 -21 10 0 19 7 19 15 0 17 -55 22 -64 6z"/>
<path d="M2566 4885 c-8 -9 -33 -15 -60 -15 -39 0 -46 -3 -59 -29 -8 -17 -12
-32 -9 -35 9 -10 80 -6 84 4 2 5 25 13 51 16 40 6 53 3 77 -15 16 -11 34 -21
40 -21 5 0 10 -4 10 -10 0 -5 11 -12 24 -16 14 -3 32 -14 42 -25 9 -10 23 -19
31 -19 7 0 13 -7 13 -15 0 -8 8 -15 19 -15 10 0 21 -9 24 -20 3 -11 12 -20 21
-20 9 0 16 -4 16 -9 0 -4 23 -31 50 -59 28 -28 50 -54 50 -57 0 -6 16 -28 60
-82 6 -7 10 -15 10 -18 0 -4 13 -20 29 -36 32 -31 42 -27 43 19 1 29 -42 132
-54 132 -5 0 -8 7 -8 15 0 8 -9 19 -20 25 -11 6 -20 17 -20 25 0 8 -7 15 -15
15 -8 0 -15 5 -15 11 0 12 -83 99 -94 99 -4 0 -19 12 -35 28 -30 30 -53 46
-91 64 -14 7 -33 20 -43 30 -10 10 -28 18 -41 18 -13 0 -29 7 -36 15 -7 8 -27
15 -46 15 -18 0 -39 -7 -48 -15z"/>
<path d="M2957 4892 c-10 -14 6 -62 19 -62 8 0 14 -6 14 -13 0 -7 9 -20 20
-30 11 -9 20 -26 20 -37 0 -11 7 -23 15 -26 8 -4 15 -10 15 -16 0 -18 51 -118
61 -118 5 0 9 -8 9 -19 0 -10 11 -30 25 -45 14 -15 25 -34 25 -42 0 -9 6 -14
13 -12 21 8 20 85 -1 121 -11 18 -22 43 -24 57 -3 22 -10 34 -53 81 -8 9 -15
23 -15 32 0 9 -9 21 -20 27 -11 6 -20 17 -20 24 0 8 -7 16 -15 20 -8 3 -15 12
-15 21 0 8 -6 15 -14 15 -8 0 -16 7 -20 15 -6 16 -31 20 -39 7z"/>
<path d="M6467 4786 c-3 -7 1 -23 9 -37 7 -13 13 -45 14 -70 0 -32 5 -49 15
-53 9 -3 15 -18 15 -39 0 -19 8 -42 20 -55 23 -25 26 -60 6 -68 -8 -3 -19 -19
-25 -35 -5 -16 -14 -29 -19 -29 -5 0 -14 -51 -21 -112 -10 -86 -11 -132 -2
-191 6 -43 11 -98 11 -122 0 -24 5 -47 10 -50 19 -12 11 -54 -12 -66 -13 -7
-27 -18 -31 -25 -4 -8 -14 -14 -21 -14 -8 0 -16 -8 -20 -17 -3 -10 -11 -26
-18 -35 -10 -15 -10 -27 5 -67 22 -64 22 -119 -3 -172 -15 -35 -20 -66 -20
-146 0 -66 4 -103 11 -103 5 0 17 -17 26 -37 8 -21 18 -40 22 -43 3 -3 13 -18
21 -34 30 -59 35 -66 46 -66 7 0 14 -9 17 -20 3 -11 12 -20 21 -20 9 0 16 -7
16 -15 0 -8 4 -15 9 -15 5 0 19 -13 30 -28 20 -28 20 -29 1 -102 -10 -40 -23
-77 -29 -83 -6 -6 -11 -23 -11 -38 0 -15 -9 -46 -20 -70 -11 -24 -20 -57 -20
-74 0 -16 -7 -39 -15 -49 -8 -11 -15 -34 -15 -52 0 -17 -7 -37 -15 -44 -8 -7
-17 -28 -20 -49 -3 -20 -11 -44 -16 -54 -7 -13 -6 -27 3 -47 11 -26 18 -29 63
-32 48 -3 50 -4 53 -35 2 -20 -1 -33 -8 -33 -6 0 -18 -16 -26 -35 -8 -19 -19
-35 -24 -35 -6 0 -10 -7 -10 -16 0 -9 -9 -27 -20 -41 -11 -14 -20 -32 -20 -39
0 -8 -5 -14 -11 -14 -5 0 -15 -13 -20 -29 -6 -16 -17 -32 -25 -35 -8 -3 -14
-15 -14 -26 0 -11 -5 -20 -11 -20 -12 0 -99 -89 -99 -102 0 -4 -7 -8 -15 -8
-8 0 -15 -6 -15 -14 0 -8 -9 -18 -20 -21 -11 -3 -20 -13 -20 -21 0 -8 -7 -14
-16 -14 -9 0 -18 -9 -21 -20 -3 -11 -9 -20 -14 -20 -4 0 -23 -14 -41 -31 -18
-17 -45 -37 -60 -45 -16 -8 -28 -19 -28 -24 0 -6 -9 -10 -19 -10 -11 0 -22 -4
-25 -9 -7 -10 -109 -61 -123 -61 -6 0 -13 -6 -16 -14 -3 -8 -19 -17 -36 -21
-17 -4 -31 -11 -31 -15 0 -5 -17 -12 -37 -16 -21 -4 -50 -15 -65 -25 -14 -11
-38 -19 -53 -19 -14 0 -33 -6 -40 -14 -8 -7 -31 -17 -52 -21 -21 -4 -41 -11
-44 -17 -3 -5 -31 -13 -62 -17 -31 -4 -62 -12 -69 -18 -7 -6 -31 -14 -53 -18
-21 -3 -52 -13 -67 -21 -15 -8 -45 -14 -68 -14 -22 0 -57 -9 -77 -20 -22 -11
-57 -20 -83 -20 -25 0 -57 -6 -71 -14 -15 -8 -60 -17 -100 -21 -41 -4 -80 -12
-86 -17 -7 -6 -42 -13 -78 -16 -77 -6 -96 -21 -64 -51 28 -26 118 -29 195 -7
27 8 91 17 143 20 52 3 99 10 105 15 6 5 40 13 76 17 36 3 70 11 77 16 6 5 42
14 79 19 38 5 75 16 84 24 10 9 37 15 69 15 37 0 53 4 57 15 7 17 59 21 69 6
3 -6 -10 -13 -29 -16 -19 -4 -37 -13 -40 -20 -2 -7 -21 -15 -40 -19 -20 -4
-36 -11 -36 -16 0 -5 -15 -12 -34 -16 -19 -3 -37 -12 -40 -19 -2 -7 -20 -15
-39 -19 -19 -4 -40 -13 -47 -21 -7 -8 -24 -15 -39 -15 -14 0 -41 -9 -59 -20
-18 -11 -41 -20 -50 -20 -10 0 -27 -7 -38 -15 -10 -8 -30 -15 -44 -15 -21 0
-113 -29 -174 -55 -10 -4 -32 -11 -50 -14 -32 -7 -51 -41 -22 -41 9 0 16 -4
16 -10 0 -5 14 -17 32 -26 33 -17 65 -44 52 -44 -4 0 10 -15 30 -34 20 -19 36
-41 36 -48 0 -16 33 -46 75 -69 17 -9 32 -25 34 -35 4 -22 25 -50 90 -120 26
-28 51 -58 54 -67 4 -12 23 -17 74 -19 66 -3 68 -4 66 -28 -9 -83 -6 -99 24
-128 16 -16 46 -52 68 -81 22 -28 43 -51 47 -51 4 0 8 -7 8 -15 0 -9 7 -18 15
-21 8 -4 15 -10 15 -15 0 -6 18 -28 40 -51 22 -23 42 -50 46 -60 5 -17 37 -18
635 -18 l629 0 0 59 c0 67 -23 199 -40 232 -9 15 -9 24 -1 32 16 16 58 -32 66
-77 4 -20 13 -36 19 -36 7 0 18 -16 25 -35 7 -19 17 -35 22 -35 5 0 9 -7 9
-15 0 -8 9 -32 20 -52 11 -21 20 -46 20 -55 0 -15 8 -18 48 -17 26 0 41 3 35
6 -7 2 -13 20 -13 38 0 42 -26 121 -51 157 -11 14 -19 33 -19 41 0 8 -9 26
-20 40 -11 14 -20 35 -20 46 0 12 -7 24 -15 27 -8 4 -15 12 -15 20 0 7 -9 18
-19 24 -11 5 -23 19 -26 31 -4 12 -15 29 -25 39 -20 20 -16 70 6 70 8 0 14 7
14 15 0 8 8 15 18 15 16 0 46 -39 64 -82 4 -10 12 -18 18 -18 5 0 10 -9 10
-20 0 -11 7 -23 15 -26 8 -3 17 -21 21 -40 3 -19 9 -34 13 -34 4 0 14 -12 21
-27 8 -16 20 -35 27 -44 7 -8 14 -26 16 -39 2 -13 9 -26 15 -28 7 -2 12 -9 12
-15 0 -7 9 -29 20 -50 11 -20 20 -44 20 -52 0 -9 6 -18 14 -21 8 -3 17 -21 20
-40 7 -34 7 -34 61 -34 52 0 55 2 55 24 0 14 -6 31 -14 38 -7 8 -17 28 -20 45
-4 17 -14 34 -22 37 -8 3 -14 17 -14 30 0 14 -8 31 -19 38 -10 7 -22 28 -25
46 -4 17 -11 32 -16 32 -4 0 -18 21 -31 48 -12 26 -29 51 -36 55 -7 4 -13 15
-13 23 0 8 -9 22 -20 31 -11 10 -20 23 -20 30 0 7 -9 17 -20 23 -11 6 -20 15
-20 21 0 6 -16 27 -35 46 -28 28 -35 43 -35 74 0 27 4 39 14 39 8 0 17 9 21
19 3 11 12 22 20 25 8 3 15 12 15 21 0 8 6 15 14 15 8 0 17 11 20 25 3 13 15
29 26 35 11 6 20 17 20 24 0 8 7 16 15 20 8 3 15 12 15 21 0 8 4 15 9 15 5 0
16 18 24 39 9 22 21 42 27 46 5 3 10 16 10 28 0 13 9 30 20 40 13 11 20 29 20
51 0 18 7 39 15 46 8 7 15 19 15 28 0 8 9 33 19 56 11 23 29 68 41 101 12 33
29 75 36 93 8 18 14 49 14 70 0 20 9 69 20 107 18 63 20 100 20 352 0 245 2
283 15 283 8 0 15 4 15 9 0 5 9 13 20 16 16 5 20 15 20 47 l0 40 -262 -6
c-276 -7 -537 4 -625 26 -46 11 -53 16 -53 37 0 13 7 32 15 41 9 10 20 43 25
75 5 32 14 63 20 69 5 5 10 22 10 36 0 14 7 50 15 80 9 30 20 93 25 139 5 46
13 88 19 94 23 23 12 78 -26 131 -20 28 -40 53 -45 55 -5 2 -13 14 -18 27 -5
13 -16 24 -25 24 -8 0 -15 5 -15 11 0 6 -15 25 -33 42 -56 55 -77 121 -52 169
8 17 15 46 15 65 0 18 7 50 15 70 19 45 19 132 0 157 -18 24 -19 58 -3 74 7 7
45 12 99 12 74 0 93 -4 133 -26 41 -23 46 -30 46 -60 0 -18 7 -54 16 -79 8
-26 15 -59 14 -73 -1 -15 -2 -61 -1 -103 1 -83 19 -119 59 -119 30 0 52 -10
52 -25 0 -8 9 -17 20 -20 11 -3 20 -12 20 -20 0 -7 7 -15 15 -19 8 -3 15 -15
15 -27 0 -30 38 -79 61 -79 44 0 58 17 55 69 -1 30 -9 57 -19 69 -9 10 -17 26
-17 35 0 9 -5 17 -11 17 -6 0 -28 18 -50 40 -22 22 -50 47 -63 55 -24 16 -42
67 -50 140 -8 78 -19 130 -31 150 -7 11 -16 38 -20 60 -8 49 -56 94 -100 95
-17 0 -40 6 -51 14 -11 8 -36 16 -55 18 -33 3 -34 4 -37 53 -1 28 -9 93 -17
145 -7 52 -15 131 -17 176 -3 93 14 126 70 139 18 3 32 11 32 16 0 5 11 9 24
9 46 0 76 18 73 42 -5 31 -60 50 -113 38 -21 -5 -42 -7 -46 -4 -4 3 -8 26 -8
52 0 26 -7 60 -15 75 -8 15 -17 43 -21 62 -3 18 -15 41 -25 51 -10 9 -19 23
-19 29 0 16 -48 25 -53 11z m239 -2536 c24 -24 468 -49 553 -31 28 6 50 6 57
0 6 -5 13 -6 17 -3 20 21 19 -196 -3 -346 -5 -36 -10 -93 -10 -127 0 -34 -6
-86 -14 -116 -8 -30 -18 -96 -22 -147 -4 -55 -12 -97 -20 -105 -8 -7 -14 -24
-14 -37 0 -13 -9 -38 -20 -56 -11 -17 -23 -50 -26 -72 -4 -22 -10 -40 -15 -40
-4 0 -14 -18 -20 -40 -7 -22 -16 -40 -21 -40 -4 0 -8 -13 -8 -28 0 -30 -44
-100 -78 -123 -10 -8 -25 -25 -32 -38 -7 -14 -25 -35 -41 -49 -16 -13 -29 -30
-29 -38 0 -8 -7 -14 -16 -14 -9 0 -18 -9 -21 -20 -3 -11 -10 -20 -16 -20 -5 0
-27 -17 -48 -37 -20 -21 -56 -54 -79 -73 -24 -19 -52 -45 -63 -57 -11 -13 -24
-23 -29 -23 -5 0 -22 -14 -38 -30 -16 -17 -33 -30 -37 -30 -5 0 -16 -9 -26
-20 -9 -11 -23 -20 -32 -20 -8 0 -19 -9 -25 -20 -15 -29 -64 -26 -98 5 -15 14
-34 32 -43 40 -9 8 -21 15 -27 15 -7 0 -12 5 -12 10 0 9 -38 56 -81 99 -24 25
-31 51 -14 57 8 3 17 21 21 40 3 19 10 37 15 40 12 7 11 64 -1 64 -5 0 -10 -4
-10 -10 0 -5 -8 -10 -19 -10 -10 0 -21 -9 -24 -20 -3 -11 -12 -20 -20 -20 -8
0 -17 -10 -20 -21 l-6 -21 -30 22 c-17 12 -31 27 -31 33 0 7 -16 27 -35 44
-19 18 -35 36 -35 41 0 5 -11 22 -25 38 -14 16 -31 35 -37 43 -16 19 -13 94 5
122 8 13 18 40 21 60 4 21 13 42 21 49 8 7 15 18 15 25 0 8 16 19 35 25 19 6
35 16 35 21 0 5 16 15 35 23 19 8 35 20 35 25 0 6 9 11 20 11 11 0 20 6 20 14
0 7 8 16 18 19 9 4 35 18 57 32 22 14 55 32 73 40 17 8 32 20 32 25 0 6 9 10
20 10 11 0 20 4 20 10 0 5 13 16 30 25 17 9 33 27 36 42 4 15 13 38 20 52 8
14 14 45 14 68 0 24 9 69 19 100 11 32 22 87 26 123 4 36 10 69 15 75 4 5 13
71 19 145 14 153 33 204 67 170z m-146 -216 c0 -6 -6 -17 -14 -23 -8 -7 -17
-40 -21 -74 -4 -34 -14 -71 -21 -82 -8 -11 -14 -39 -14 -63 0 -23 -6 -58 -14
-76 -7 -18 -17 -59 -21 -92 -8 -67 -23 -90 -84 -121 -43 -23 -43 -23 -69 -3
-13 11 -33 20 -42 20 -10 0 -20 7 -24 15 -3 9 -18 15 -35 15 -33 0 -38 4 -45
43 -4 23 -1 27 20 27 17 0 24 5 24 20 0 11 7 20 15 20 9 0 18 7 21 15 3 8 14
17 25 20 10 4 19 13 19 21 0 8 7 14 15 14 8 0 15 7 15 15 0 8 5 15 10 15 6 0
16 11 22 25 6 14 17 25 25 25 7 0 13 8 13 18 0 9 15 33 33 53 18 20 39 50 46
68 8 17 17 31 22 31 5 0 9 9 9 20 0 11 7 20 15 20 9 0 18 12 22 30 5 28 7 29
19 13 7 -10 14 -23 14 -29z m-394 -579 c4 -8 12 -15 20 -15 25 0 15 -25 -16
-38 -17 -8 -43 -27 -59 -43 -16 -16 -34 -29 -40 -29 -6 0 -11 -6 -11 -14 0 -8
-9 -18 -20 -21 -11 -3 -20 -13 -20 -21 0 -8 -6 -14 -12 -14 -13 0 -68 -105
-68 -128 0 -7 -5 -12 -10 -12 -6 0 -15 -11 -20 -25 -5 -14 -14 -25 -19 -25 -5
0 -12 -13 -16 -30 -4 -16 -12 -30 -20 -30 -7 0 -16 -16 -19 -35 -4 -19 -11
-35 -15 -35 -10 0 -51 -74 -51 -90 0 -6 -9 -19 -20 -30 -11 -11 -20 -28 -20
-38 0 -10 -9 -25 -20 -35 -11 -9 -20 -26 -20 -37 0 -11 -4 -20 -10 -20 -5 0
-17 -16 -26 -35 -9 -19 -20 -35 -25 -35 -5 0 -9 -9 -9 -20 0 -23 4 -23 -175
-20 -96 1 -134 5 -146 16 -9 8 -18 11 -22 8 -3 -3 -3 3 0 14 3 12 18 25 34 31
16 5 29 15 29 20 0 6 8 11 19 11 10 0 30 9 44 20 14 11 29 20 35 20 5 0 17 9
27 20 10 11 24 20 32 20 7 0 13 9 13 20 0 17 -7 20 -47 20 -58 0 -91 16 -55
26 24 7 47 48 36 65 -9 15 -71 10 -84 -6 -22 -27 -97 -55 -145 -55 -26 0 -54
-4 -63 -9 -22 -12 -102 8 -102 25 0 7 10 16 23 20 12 4 45 31 73 60 28 30 55
54 60 54 5 0 23 12 41 28 40 36 107 72 132 72 12 0 21 5 21 12 0 6 3 9 6 5 11
-10 -6 -45 -25 -50 -27 -7 -57 -55 -43 -69 15 -15 99 -1 106 17 3 9 18 15 36
15 19 0 30 5 30 14 0 8 11 17 25 20 14 4 25 14 25 22 0 10 6 14 14 11 9 -4 17
2 21 13 4 11 12 17 21 13 7 -3 14 0 14 6 0 6 5 11 10 11 6 0 10 -7 10 -15 0
-8 -4 -15 -9 -15 -5 0 -13 -10 -17 -22 -8 -27 -44 -80 -61 -91 -7 -4 -13 -15
-13 -22 0 -8 -6 -15 -14 -15 -8 0 -17 -11 -20 -24 -3 -14 -14 -26 -24 -28 -12
-3 -7 -7 16 -16 31 -11 34 -10 39 8 3 12 14 20 28 20 12 0 30 9 40 20 10 11
26 20 37 20 10 0 26 9 35 20 10 11 23 20 30 20 7 0 13 5 13 10 0 6 8 14 17 17
28 11 55 44 91 116 17 34 8 97 -14 97 -8 0 -26 -7 -39 -16 -25 -16 -60 -12
-53 5 7 22 111 131 124 131 8 0 17 7 20 15 4 9 19 15 35 15 17 0 32 6 35 14 3
8 19 18 36 21 16 4 32 13 35 21 3 8 19 14 38 14 20 0 35 6 39 15 3 9 18 15 36
15 18 0 33 -6 36 -15z m-686 -319 c0 -3 -4 -8 -10 -11 -5 -3 -10 -1 -10 4 0 6
5 11 10 11 6 0 10 -2 10 -4z m477 -298 c7 -13 18 -35 25 -50 7 -16 18 -28 25
-28 7 0 13 -7 13 -15 0 -8 9 -19 20 -25 11 -6 20 -15 20 -21 0 -13 41 -72 58
-82 6 -4 12 -15 12 -22 0 -8 6 -15 14 -15 8 0 18 -9 21 -20 3 -11 13 -20 21
-20 8 0 14 -9 14 -20 0 -11 6 -20 14 -20 7 0 24 -16 37 -35 13 -19 29 -35 36
-35 6 0 15 -9 18 -20 3 -11 10 -20 15 -20 8 0 33 -20 101 -85 9 -8 20 -15 25
-15 5 0 16 -9 24 -20 8 -11 22 -20 32 -20 10 0 18 -7 18 -15 0 -9 7 -18 15
-21 8 -4 15 -14 15 -24 0 -16 -5 -17 -42 -8 -24 5 -47 16 -51 24 -4 8 -15 14
-22 14 -8 0 -15 7 -15 15 0 8 -8 15 -18 15 -9 0 -23 9 -30 20 -7 11 -19 20
-27 20 -8 0 -29 16 -48 35 -19 19 -39 35 -46 35 -6 0 -11 6 -11 14 0 8 -9 18
-20 21 -11 3 -20 13 -20 21 0 8 -7 14 -15 14 -9 0 -19 8 -22 18 -4 9 -27 37
-52 62 -26 25 -52 57 -60 73 -8 15 -18 27 -23 27 -4 0 -8 9 -8 20 0 11 -7 20
-15 20 -8 0 -15 6 -15 13 0 7 -9 20 -20 30 -11 9 -20 24 -20 33 0 9 -7 22 -16
29 -9 6 -18 32 -21 58 -5 41 -3 47 13 47 11 0 25 -10 31 -22z m853 -480 c0
-34 -13 -29 -25 10 -5 16 -2 22 9 22 11 0 16 -10 16 -32z"/>
<path d="M4100 4745 c-14 -7 -46 -17 -72 -20 -27 -4 -48 -10 -48 -14 0 -5 -17
-15 -37 -24 -46 -20 -76 -38 -85 -53 -4 -7 -18 -14 -32 -18 -13 -3 -31 -18
-41 -32 -14 -22 -15 -28 -3 -40 16 -16 98 -1 110 21 5 7 22 16 38 20 17 4 30
10 30 15 0 4 17 11 37 15 21 4 40 11 44 16 3 5 27 12 55 15 27 4 60 14 74 23
14 10 41 18 60 20 38 3 64 20 43 28 -7 3 -13 11 -13 18 0 7 -7 16 -16 19 -28
11 -119 6 -144 -9z"/>
<path d="M400 4691 c0 -17 5 -33 12 -37 12 -8 40 24 32 37 -3 5 0 9 6 9 6 0 8
5 5 10 -3 6 -17 10 -31 10 -20 0 -24 -5 -24 -29z"/>
<path d="M1323 4713 c9 -2 23 -2 30 0 6 3 -1 5 -18 5 -16 0 -22 -2 -12 -5z"/>
<path d="M1328 4693 c6 -2 18 -2 25 0 6 3 1 5 -13 5 -14 0 -19 -2 -12 -5z"/>
<path d="M1228 4683 c-22 -6 -22 -8 -1 -33 21 -25 24 -25 52 -1 37 32 9 50
-51 34z"/>
<path d="M1400 4641 c0 -5 7 -12 16 -15 22 -9 24 -8 24 9 0 8 -9 15 -20 15
-11 0 -20 -4 -20 -9z"/>
<path d="M440 4610 c0 -5 5 -10 11 -10 5 0 7 5 4 10 -3 6 -8 10 -11 10 -2 0
-4 -4 -4 -10z"/>
<path d="M1163 4603 c-7 -3 -13 -9 -13 -14 0 -12 37 -12 44 0 7 11 -14 20 -31
14z"/>
<path d="M4885 4600 c-38 -5 -126 -11 -195 -15 -69 -4 -136 -13 -150 -20 -14
-7 -61 -16 -104 -20 -44 -4 -89 -13 -100 -20 -12 -7 -43 -16 -71 -20 -27 -4
-58 -13 -69 -21 -11 -8 -29 -14 -39 -14 -34 0 -231 -71 -247 -89 -3 -4 -18
-11 -34 -16 -63 -22 -29 -50 41 -35 21 5 39 14 41 19 2 6 14 11 28 11 13 0 47
9 76 20 29 11 67 20 83 20 17 0 42 6 56 14 14 7 52 17 84 21 32 4 69 11 82 16
13 5 71 13 129 19 59 5 113 15 120 21 10 8 127 12 400 13 357 1 386 0 395 -16
6 -10 14 -18 19 -18 12 0 90 -77 90 -89 0 -6 6 -11 13 -11 6 0 21 -3 32 -5 35
-9 48 7 33 41 -14 31 -43 64 -56 64 -4 0 -15 8 -24 18 -36 37 -54 50 -78 57
-14 4 -30 12 -37 17 -6 5 -49 13 -95 18 -45 5 -121 14 -168 20 -93 11 -148 11
-255 0z"/>
<path d="M1310 4560 c0 -11 -7 -20 -15 -20 -8 0 -15 -9 -15 -20 0 -13 5 -18
15 -14 8 4 15 12 15 20 0 8 7 14 15 14 20 0 65 22 65 32 0 4 -18 8 -40 8 -33
0 -40 -3 -40 -20z"/>
<path d="M506 4535 c-3 -9 1 -18 10 -22 19 -7 26 0 18 21 -8 20 -20 21 -28 1z"/>
<path d="M7285 4503 c-16 -3 -38 -11 -49 -19 -11 -8 -26 -14 -34 -14 -7 0 -28
-10 -45 -23 -18 -12 -40 -23 -50 -25 -25 -4 -77 20 -77 35 0 7 -8 13 -18 13
-10 0 -27 7 -38 15 -10 8 -34 15 -51 15 -26 0 -33 -4 -33 -19 0 -18 64 -81 83
-81 5 0 15 -8 22 -17 19 -26 127 -31 162 -7 54 36 133 54 241 54 l102 0 0 34
c0 26 -5 35 -22 40 -25 6 -145 6 -193 -1z"/>
<path d="M2292 4491 c-10 -6 -8 -10 10 -14 12 -4 33 -7 46 -7 26 0 39 -24 23
-44 -16 -19 14 -26 109 -26 86 0 112 10 89 33 -23 22 -56 37 -84 37 -14 0 -28
7 -31 15 -5 11 -23 15 -78 15 -39 0 -77 -4 -84 -9z"/>
<path d="M550 4481 c0 -6 4 -13 10 -16 6 -3 7 1 4 9 -7 18 -14 21 -14 7z"/>
<path d="M400 4453 c0 -14 19 -38 25 -32 8 8 -5 39 -16 39 -5 0 -9 -3 -9 -7z"/>
<path d="M1188 4439 c-22 -23 -22 -29 -3 -29 8 0 15 7 15 15 0 8 7 15 15 15 8
0 15 5 15 10 0 16 -23 10 -42 -11z"/>
<path d="M1215 4421 c-7 -13 60 -26 76 -15 9 5 7 10 -7 15 -27 11 -62 11 -69
0z"/>
<path d="M634 4376 c-8 -32 2 -46 32 -46 28 0 33 29 8 54 -22 22 -33 20 -40
-8z"/>
<path d="M2630 4373 c-69 -4 -99 -18 -80 -37 6 -6 67 -13 138 -16 l127 -5 -2
-27 c-1 -24 3 -27 55 -38 31 -6 70 -14 86 -17 18 -4 31 -1 37 8 15 24 10 49
-9 49 -10 0 -26 15 -36 34 -10 19 -28 37 -40 39 -34 9 -206 14 -276 10z"/>
<path d="M480 4350 c0 -5 7 -10 16 -10 8 0 12 5 9 10 -3 6 -10 10 -16 10 -5 0
-9 -4 -9 -10z"/>
<path d="M5275 4341 c-11 -5 -47 -12 -79 -16 -52 -6 -64 -12 -97 -47 -42 -45
-80 -57 -187 -58 -80 0 -81 22 -1 31 30 4 62 10 71 14 19 7 31 32 22 46 -9 15
-117 10 -138 -6 -11 -8 -34 -15 -50 -15 -17 -1 -42 -7 -56 -15 -29 -16 -110
-20 -110 -5 0 6 -16 10 -35 10 -19 0 -35 -4 -35 -9 0 -5 -22 -11 -49 -15 -27
-3 -54 -13 -61 -21 -17 -20 -70 -20 -70 0 0 11 -11 15 -36 15 -19 0 -42 -7
-50 -15 -9 -8 -28 -15 -43 -15 -15 0 -33 -8 -41 -20 -8 -11 -22 -20 -31 -20
-28 0 -49 -11 -49 -26 0 -8 -10 -14 -25 -14 -16 0 -25 -6 -25 -16 0 -14 7 -15
37 -11 20 4 39 10 42 15 3 5 25 13 49 17 24 4 46 13 49 21 3 8 19 14 40 14 30
0 34 -2 23 -15 -11 -13 -6 -15 34 -15 34 0 46 4 46 15 0 10 10 15 30 15 18 0
37 8 47 20 24 28 93 28 100 0 3 -12 19 -24 37 -29 28 -8 29 -9 6 -10 -14 -1
-35 -7 -46 -14 -64 -36 -127 -67 -138 -67 -8 0 -25 -9 -39 -20 -14 -11 -31
-20 -39 -20 -8 0 -24 -9 -36 -20 -12 -11 -28 -20 -37 -20 -8 0 -24 -9 -35 -20
-11 -11 -27 -20 -35 -20 -8 0 -15 -4 -15 -9 0 -5 -15 -15 -34 -21 -19 -6 -37
-17 -40 -25 -3 -8 -12 -15 -21 -15 -8 0 -15 -7 -15 -15 0 -8 -5 -15 -12 -15
-6 0 -18 -7 -27 -15 -93 -86 -125 -115 -133 -115 -4 0 -8 -4 -8 -9 0 -5 -25
-33 -55 -62 -30 -29 -55 -57 -55 -63 0 -7 -8 -19 -17 -28 -29 -27 -40 -43 -48
-69 -4 -13 -16 -32 -26 -42 -11 -10 -19 -27 -19 -39 0 -11 -7 -26 -16 -32 -8
-7 -12 -19 -9 -28 12 -32 56 5 100 84 5 10 15 18 22 18 7 0 13 9 13 20 0 13 7
20 20 20 12 0 20 7 20 16 0 24 216 234 240 234 5 0 10 3 10 8 0 11 71 65 86
65 8 0 16 9 20 19 3 10 11 18 19 18 7 0 37 16 66 35 30 19 64 35 76 35 13 0
23 6 23 14 0 8 15 17 35 20 21 4 35 13 35 21 0 11 11 15 38 15 26 0 45 7 56
19 10 10 32 21 49 24 18 2 46 9 62 15 83 30 165 52 192 52 17 0 48 6 69 14 22
7 76 16 122 20 46 4 98 14 117 22 23 9 72 14 144 14 110 0 168 11 156 30 -3 5
-18 10 -33 10 -15 0 -38 3 -51 7 -21 5 -23 10 -17 49 5 41 4 45 -24 59 -32 17
-45 18 -75 6z m-440 -132 c10 -14 3 -19 -38 -26 -25 -4 -41 -1 -51 10 -14 14
-14 16 2 20 33 9 81 7 87 -4z m-445 -9 c-20 -13 -50 -13 -50 0 0 6 15 10 33
10 24 0 28 -3 17 -10z"/>
<path d="M6790 4299 c0 -24 22 -49 43 -49 10 0 13 61 3 67 -27 17 -46 10 -46
-18z"/>
<path d="M6720 4217 c0 -13 3 -27 7 -30 9 -10 43 23 43 42 0 14 -2 14 -11 1
-8 -11 -12 -12 -16 -2 -8 20 -23 13 -23 -11z"/>
<path d="M7417 4199 c-9 -6 -27 -9 -40 -7 -17 2 -23 -2 -25 -22 -5 -48 12 -54
49 -18 18 18 34 39 35 46 3 14 4 14 -19 1z"/>
<path d="M7332 4160 c0 -14 2 -19 5 -12 2 6 2 18 0 25 -3 6 -5 1 -5 -13z"/>
<path d="M500 4112 c0 -25 6 -29 73 -50 97 -30 197 -30 272 1 37 15 55 28 55
40 0 9 -7 17 -15 17 -8 0 -15 4 -15 9 0 6 -77 10 -185 10 l-185 1 0 -28z"/>
<path d="M4300 4129 c0 -5 5 -7 10 -4 6 3 10 8 10 11 0 2 -4 4 -10 4 -5 0 -10
-5 -10 -11z"/>
<path d="M4063 4103 c-18 -6 -16 -23 1 -23 17 0 30 16 19 23 -5 2 -14 2 -20 0z"/>
<path d="M7293 4085 c-13 -25 -7 -43 23 -74 22 -21 24 -22 24 -5 0 11 -9 37
-19 59 -16 37 -18 38 -28 20z"/>
<path d="M6740 4055 c0 -2 8 -20 17 -40 15 -31 21 -36 48 -33 24 2 30 8 30 27
0 20 -5 24 -29 26 -16 0 -31 6 -34 13 -3 11 -32 18 -32 7z"/>
<path d="M7352 4010 c0 -14 2 -19 5 -12 2 6 2 18 0 25 -3 6 -5 1 -5 -13z"/>
<path d="M640 3923 c-19 -3 -40 -9 -46 -14 -6 -4 -36 -11 -67 -15 -31 -4 -57
-10 -57 -15 0 -4 -9 -11 -20 -14 -23 -7 -28 -45 -6 -45 8 0 17 -7 20 -16 5
-14 29 -15 191 -12 130 2 188 7 197 16 6 6 31 12 54 12 49 0 83 27 46 37 -12
3 -22 10 -22 15 0 7 -20 8 -52 4 -29 -3 -83 -9 -120 -12 -64 -6 -68 -6 -68 14
0 11 5 24 10 27 13 8 3 26 -13 23 -7 0 -28 -3 -47 -5z"/>
<path d="M7399 3903 c-8 -9 -9 -14 -2 -10 7 5 13 -1 16 -15 l4 -23 2 23 c0 12
6 22 12 22 5 0 7 5 4 10 -9 15 -21 12 -36 -7z"/>
<path d="M7295 3797 c5 -27 32 -60 52 -64 7 -2 7 6 -1 22 -6 14 -16 25 -22 25
-6 0 -16 10 -23 23 -11 21 -11 21 -6 -6z"/>
<path d="M3033 3777 c-4 -6 -21 -19 -37 -27 -16 -8 -34 -27 -40 -42 -6 -16
-16 -28 -23 -28 -7 0 -13 -9 -13 -20 0 -11 -7 -20 -15 -20 -8 0 -15 -6 -15
-13 0 -8 -9 -24 -20 -37 -11 -13 -20 -29 -20 -35 0 -7 -6 -15 -13 -18 -15 -6
-67 -101 -67 -123 0 -8 -4 -14 -10 -14 -10 0 -86 -151 -96 -192 -3 -16 -12
-28 -19 -28 -7 0 -15 -16 -18 -35 -3 -19 -13 -42 -21 -51 -9 -8 -16 -24 -16
-33 0 -10 -7 -24 -15 -31 -8 -7 -15 -24 -15 -39 0 -14 -7 -34 -15 -44 -7 -11
-17 -38 -20 -60 -4 -23 -13 -49 -20 -57 -7 -8 -15 -39 -18 -69 -4 -30 -12 -58
-19 -62 -21 -13 -16 -346 5 -425 10 -34 17 -80 17 -102 0 -23 4 -52 10 -67 5
-14 15 -56 20 -93 6 -37 18 -80 26 -96 8 -16 14 -39 14 -50 0 -12 7 -30 16
-41 8 -11 19 -36 25 -57 5 -21 14 -38 19 -38 6 0 10 -7 10 -15 0 -19 39 -55
60 -55 44 0 47 21 54 310 4 151 11 291 16 310 5 19 12 96 15 170 4 76 12 141
19 149 6 8 14 56 17 107 3 52 12 100 19 109 7 8 16 51 21 96 4 44 12 86 17 92
6 7 13 39 17 72 4 33 14 72 21 87 8 15 14 41 14 58 0 17 6 46 14 64 7 18 17
53 21 77 4 24 13 54 21 66 8 12 14 30 14 40 0 19 33 133 56 193 12 31 18 80
15 118 -1 16 -18 16 -28 -1z"/>
<path d="M6631 3638 c1 -18 3 -25 6 -15 2 9 9 17 14 17 5 0 9 7 9 15 0 8 -7
15 -15 15 -10 0 -15 -10 -14 -32z"/>
<path d="M7478 3423 c7 -3 16 -2 19 1 4 3 -2 6 -13 5 -11 0 -14 -3 -6 -6z"/>
<path d="M7436 3384 c-8 -22 1 -31 16 -16 9 9 9 15 1 23 -7 7 -12 5 -17 -7z"/>
<path d="M7458 3255 c-4 -21 -1 -25 18 -25 19 0 24 5 24 25 0 18 -5 25 -19 25
-12 0 -20 -9 -23 -25z"/>
<path d="M6854 3214 c3 -9 6 -20 6 -25 0 -5 5 -9 10 -9 6 0 10 11 10 25 0 16
-6 25 -16 25 -11 0 -14 -5 -10 -16z"/>
<path d="M6746 3152 c-12 -20 7 -52 30 -52 29 0 31 20 6 43 -21 19 -28 21 -36
9z"/>
<path d="M7220 3120 c0 -11 6 -20 14 -20 9 0 14 9 13 20 -1 11 -7 20 -14 20
-7 0 -13 -9 -13 -20z"/>
<path d="M7361 3114 c0 -11 3 -14 6 -6 3 7 2 16 -1 19 -3 4 -6 -2 -5 -13z"/>
<path d="M7318 3093 c6 -2 18 -2 25 0 6 3 1 5 -13 5 -14 0 -19 -2 -12 -5z"/>
<path d="M6815 3080 c28 -12 65 -12 65 0 0 6 -19 10 -42 9 -33 0 -38 -2 -23
-9z"/>
<path d="M7187 2973 c-4 -3 -51 -8 -104 -9 -116 -4 -153 -11 -153 -30 0 -31
53 -42 216 -46 142 -3 162 -1 178 15 10 9 22 17 27 17 23 0 6 28 -26 43 -35
17 -125 23 -138 10z"/>
<path d="M7132 2803 c-18 -2 -30 -9 -27 -14 4 -5 0 -9 -8 -9 -7 0 -14 -7 -14
-15 0 -8 9 -15 19 -15 10 0 18 4 18 8 0 5 18 15 40 22 22 7 40 17 40 22 0 8
-8 8 -68 1z"/>
</g>
</svg>
